<?xml version="1.0" encoding="utf-8"?>
<!-- Generator: Adobe Illustrator 17.0.0, SVG Export Plug-In . SVG Version: 6.00 Build 0)  -->
<!DOCTYPE svg PUBLIC "-//W3C//DTD SVG 1.1//EN" "http://www.w3.org/Graphics/SVG/1.1/DTD/svg11.dtd">
<svg version="1.1" id="Layer_1" xmlns="http://www.w3.org/2000/svg" xmlns:xlink="http://www.w3.org/1999/xlink" x="0px" y="0px"
	 width="576.5px" height="576.5px" viewBox="0 0 576.5 576.5" enable-background="new 0 0 576.5 576.5" xml:space="preserve">
<path fill="#020202" d="M565.496,446.37c0.008,62.414-50.582,113.016-112.996,113.024c-15.315,0.002-30.471-3.109-44.547-9.144
	l-24.29-14.27l-279.31-163.916l-0.488-0.287l-9.562-5.6l-0.344-0.2C29.546,325.45-4.316,250.279,8.007,175.186
	C20.33,100.089,76.445,39.686,150.43,21.872C224.415,4.056,301.874,32.3,347.027,93.557l0.143,0.23l6.747,9.79l0.058,0.087
	l192.227,279.511C558.843,401.82,565.568,423.844,565.496,446.37"/>
<path fill="#FFFFFF" d="M139.91,222.93c0.353,0.06,2,0.57,4.94,1.53c2.94,0.96,6.51,2.037,10.71,3.23
	c4.193,1.2,8.403,2.25,12.63,3.15c4.22,0.907,7.817,1.36,10.79,1.36c2.567,0,4.663-0.38,6.29-1.14c1.633-0.76,2.45-2.16,2.45-4.2
	c0-2.213-1.163-4.223-3.49-6.03c-2.333-1.807-5.32-3.67-8.96-5.59c-3.647-1.927-7.523-4.113-11.63-6.56s-7.98-5.387-11.62-8.82
	c-3.64-3.44-6.627-7.563-8.96-12.37c-2.333-4.807-3.5-10.56-3.5-17.26c0-8.22,1.72-15.17,5.16-20.85
	c3.44-5.68,8.057-10.253,13.85-13.72c5.8-3.467,12.327-5.987,19.58-7.56c7.253-1.573,14.697-2.36,22.33-2.36
	c6.467,0,12.587,0.35,18.36,1.05c5.767,0.7,10.647,1.457,14.64,2.27c3.987,0.813,6.507,1.367,7.56,1.66v40.12l-3.63-0.79
	c-2.42-0.52-5.45-1.103-9.09-1.75c-3.64-0.64-7.397-1.22-11.27-1.74c-3.88-0.527-7.277-0.79-10.19-0.79c-2.68,0-4.69,0.467-6.03,1.4
	c-1.34,0.933-2.01,2.04-2.01,3.32c0,1.047,0.583,2.197,1.75,3.45c1.167,1.253,2.567,2.23,4.2,2.93c6.113,2.68,11.88,5.42,17.3,8.22
	c5.42,2.793,10.197,6.027,14.33,9.7c4.14,3.667,7.39,8.137,9.75,13.41c2.36,5.273,3.54,11.727,3.54,19.36
	c0,9.093-2.287,17.02-6.86,23.78c-4.573,6.753-11.157,11.997-19.75,15.73c-8.6,3.727-18.96,5.59-31.08,5.59
	c-10.427,0-19.02-0.493-25.78-1.48c-6.76-0.993-12.063-2.117-15.91-3.37c-3.847-1.253-6.54-2.373-8.08-3.36l-2.32-1.49
	L139.91,222.93z"/>
<rect x="140.07" y="126.24" fill="none" width="110.13" height="146.92"/>
</svg>
